<svg xmlns="http://www.w3.org/2000/svg" enable-background="new 0 0 1024 1024" viewBox="0 0 1024 1024"><path d="M512 601.88c-8.05 0-15.61-3.13-21.31-8.83L292.17 394.53c-61.36-61.36-61.36-161.21 0-222.58 29.74-29.73 69.26-46.1 111.29-46.1 40.76 0 79.15 15.39 108.54 43.42 29.4-28.03 67.79-43.41 108.54-43.41 42.04 0 81.56 16.37 111.29 46.1 29.73 29.74 46.1 69.26 46.1 111.29 0 42.05-16.38 81.57-46.11 111.29L533.3 593.05C527.61 598.75 520.04 601.88 512 601.88zM403.46 165.85c-31.35 0-60.83 12.21-83.01 34.38-45.76 45.77-45.76 120.25 0 166.01L512 557.79l191.54-191.54c22.18-22.17 34.39-51.65 34.39-83.01 0-31.35-12.21-60.83-34.38-83.01-22.17-22.17-51.64-34.38-83-34.38s-60.83 12.21-83 34.38l-25.53 25.55-25.55-25.55C464.3 178.06 434.82 165.85 403.46 165.85zM796.43 898.15H583.07V698.49c0-31.24 9.8-61.05 28.34-86.21 4.31-5.85 9.09-11.41 14.22-16.54l78.77-78.77c11.01-11 28.92-11.01 39.92 0l1.89 1.89c7.41 7.41 13.39 15.96 17.78 25.42 15.63 33.68 8.48 73.95-17.78 100.21l-26.86 26.85c-1.34 1.34-2.12 3.21-2.12 5.11v9.91l82.84-82.84c2.42-2.42 3.8-5.76 3.8-9.17V458.99c0-10.39 1.79-20.58 5.31-30.28 7.93-21.89 24.58-40.16 45.67-50.1 11.89-5.61 24.62-8.45 37.84-8.45 7.54 0 14.63 2.94 19.96 8.27 5.33 5.33 8.27 12.42 8.27 19.96v231.29c0 25.79-10.46 51.04-28.7 69.27l-64.1 64.1c-3.79 3.79-7.3 7.86-10.44 12.12-13.72 18.52-21.26 41.38-21.26 64.4V898.15zM623.07 858.15h133.36v-18.58c0-31.53 10.33-62.84 29.1-88.17 4.3-5.83 9.13-11.44 14.32-16.63l64.1-64.1c10.79-10.79 16.98-25.73 16.98-40.99v-218.1c-3.09.76-6.1 1.84-9.01 3.21-11.6 5.47-20.76 15.51-25.12 27.56-1.94 5.33-2.92 10.92-2.92 16.64v135.37c0 13.94-5.66 27.59-15.52 37.45l-85.77 85.77c-10.98 10.99-27.35 14.25-41.71 8.3-14.36-5.95-23.64-19.83-23.64-35.38v-14.05c0-12.61 4.91-24.48 13.84-33.4l26.84-26.84c14.45-14.45 18.38-36.59 9.79-55.1-1.13-2.42-2.44-4.74-3.94-6.94l-69.85 69.85c-3.71 3.71-7.18 7.74-10.3 11.98-13.44 18.23-20.54 39.83-20.54 62.47V858.15zM440.93 898.15H227.57v-58.58c0-23.01-7.54-45.87-21.24-64.37-3.16-4.29-6.68-8.37-10.46-12.15l-64.1-64.1c-18.24-18.24-28.7-43.49-28.7-69.27V398.39c0-7.54 2.94-14.63 8.27-19.96 5.34-5.33 12.42-8.27 19.96-8.27 13.21 0 25.94 2.84 37.84 8.45 21.09 9.94 37.74 28.21 45.68 50.12 3.52 9.68 5.31 19.87 5.31 30.26v135.37c0 3.41 1.39 6.75 3.8 9.17l82.84 82.84v-9.91c0-1.9-.77-3.77-2.12-5.12l-26.86-26.86c-26.25-26.25-33.39-66.52-17.77-100.2 4.39-9.46 10.37-18.01 17.78-25.42l1.89-1.89c11.01-11.01 28.92-11.01 39.92 0l78.77 78.77c5.12 5.12 9.91 10.69 14.22 16.54 18.54 25.15 28.34 54.96 28.34 86.21V898.15zM267.57 858.15h133.36V698.49c0-22.64-7.1-44.24-20.54-62.47-3.13-4.24-6.59-8.27-10.3-11.99l-69.85-69.85c-1.5 2.2-2.82 4.52-3.95 6.94-8.59 18.51-4.66 40.65 9.78 55.08l26.85 26.85c8.93 8.93 13.84 20.79 13.84 33.41v14.05c0 15.54-9.28 29.43-23.64 35.38-14.36 5.95-30.73 2.68-41.71-8.31l-85.76-85.76c-9.86-9.86-15.52-23.51-15.52-37.45V458.99c0-5.72-.98-11.31-2.91-16.62-4.37-12.07-13.53-22.11-25.13-27.58-2.92-1.37-5.93-2.45-9.01-3.21v218.1c0 15.26 6.19 30.2 16.98 40.99l64.1 64.1c5.19 5.19 10.02 10.8 14.34 16.66 18.74 25.3 29.08 56.62 29.08 88.14V858.15z"/></svg>